<?xml version="1.0" encoding="UTF-8"?>
<svg id="Layer_1" data-name="Layer 1" xmlns="http://www.w3.org/2000/svg" viewBox="0 0 1098.93 185.14">
  <defs>
    <style>
      .cls-1 {
        fill: #003eab;
      }
    </style>
  </defs>
  <path class="cls-1" d="m423.38,8.48l-36.32.12c-.13-.07-.27-.12-.44-.12h-36.48c-3.01,0-4.52,3.15-2.44,5.06,5.01,4.59,11.69,12.18,11.69,22.98,0,.07.01.12.01.19v117.84s0,.08,0,.13c0,10.8-6.68,18.39-11.69,22.98-2.08,1.91-.57,5.06,2.44,5.06h49.94c2.98,0,4.55-3.12,2.49-5.01-5.01-4.6-11.66-12.25-11.66-23.03,0-.13-.02-.23-.02-.36v-37.64c0-1.54,1.25-2.79,2.79-2.79h24.36c36.35,0,65.43-16.72,65.43-54.28,0-35.14-23.26-51.13-60.1-51.13Zm-15.75,88.45h-13.94c-1.54,0-2.79-1.25-2.79-2.79V27.5c0-1.54,1.25-2.79,2.79-2.79h14.18c24.47,0,41.92,9.93,41.92,35.38,0,30.53-18.17,36.83-42.17,36.83Z"/>
  <path class="cls-1" d="m563.96,63.49c-13.57,0-24.96,11.15-30.53,29.08v-7.13c0-.09,0-.18-.01-.27l-1.99-20.28c-.2-2.01-2.41-3.15-4.16-2.14l-36.43,21.02c-1.39.8-1.75,2.52-1.04,3.78.33.59.96.97,1.63,1.07l4.51.67c4.78.71,8.34,4.78,8.41,9.61v.03s0,55.75,0,55.75c0,0,0,0,0,0,0,10.8-5.84,18.39-10.22,22.98-1.82,1.91-.5,5.06,2.13,5.06h45.18c2.6,0,3.98-3.12,2.18-5.01-4.35-4.57-10.12-12.16-10.19-22.84v-35.3c0-.07,0-.14,0-.21.99-16.91,7.52-29.22,13.32-29.22,6.54,0,7.51,11.63,20.11,11.63,10.42,0,16.96-8.72,16.96-18.9,0-13.33-9.69-19.39-19.87-19.39Z"/>
  <path class="cls-1" d="m647.18,64.22c38.05,0,60.82,26.17,61.07,60.34,0,37.56-24.48,59.85-61.07,60.58-36.59-.49-61.07-22.78-61.07-60.1s24.96-60.82,61.07-60.82Zm27.38,60.58c0-25.69-6.06-48.95-27.38-49.19-21.57-.24-27.38,23.26-27.38,49.19s5.82,48.71,27.38,48.71,27.38-22.78,27.38-48.71Z"/>
  <path class="cls-1" d="m768.69,177.63c-4.4-4.55-10.4-12.01-10.4-22.95,0-.2-.02-.36-.03-.55V5.7c0-2.13-2.28-3.48-4.15-2.46l-38.86,21.25c-1.87,1.02-1.63,3.78.38,4.47h0s4.03.3,4.03.3c5.22.39,9.36,4.63,9.51,9.86,0,.08,0,.14,0,.19v115.47c-.05,10.93-6.08,18.3-10.46,22.82-1.85,1.91-.51,5.09,2.15,5.09h13.49s.07.03.11.03h32.07c2.65,0,3.99-3.18,2.15-5.09Z"/>
  <path class="cls-1" d="m840.91,177.65c-4.36-4.4-10.77-11.32-10.97-22.45v-89.92c0-2.12-2.27-3.46-4.12-2.44l-38.32,20.96c-.46.25-.81.61-1.06,1.01-.97,1.63.3,3.71,2.19,3.89l2.95.27c5.11.46,9.12,4.65,9.27,9.78,0,.08,0,.14,0,.19v55.99c-.09,11.25-6.52,18.3-10.91,22.74-1.86,1.88-.51,5.06,2.13,5.06h46.71c2.64,0,3.99-3.19,2.13-5.07Z"/>
  <path class="cls-1" d="m987.03,177.64c-4.43-4.47-11.13-11.4-11.13-22.96,0-.05,0-.09,0-.14v-85.11c0-1.54-1.25-2.79-2.79-2.79h-68.38c-.96,0-1.84-.48-2.35-1.29-7-11.06-13.96-23.35-13.96-33.85,0-11.15,7.75-18.17,17.93-18.17,13.57,0,15.02,9.69,16.72,19.14,1.7,10.18,9.94,14.54,19.39,14.54,8.72,0,17.69-6.54,17.69-18.42,0-18.42-18.66-28.59-39.01-28.59-33.2,0-51.86,15.99-51.86,44.59,0,6.86,1.14,11.63,1.74,19.02.13,1.62-1.15,3.03-2.78,3.03h-11.68c-1.54,0-2.79,1.25-2.79,2.79v9.94c0,1.54,1.25,2.79,2.79,2.79h12.85c1.54,0,2.79,1.25,2.79,2.79v69.66s0,.05,0,.08c0,11.39-6.49,18.5-10.92,22.98-1.86,1.88-.51,5.06,2.13,5.06h32.61c.06,0,.1-.03.15-.04h13.9c2.64,0,3.99-3.18,2.13-5.06-4.39-4.44-10.8-11.47-10.91-22.67v-70c0-1.54,1.25-2.79,2.79-2.79h39.99c1.54,0,2.79,1.25,2.79,2.79v69.68c-.04,11.21-6.37,18.41-10.78,22.88-1.85,1.88-.51,5.06,2.13,5.06h13.5c.12.09.26.15.42.15h32.83c2.65,0,3.98-3.2,2.12-5.08Z"/>
  <path class="cls-1" d="m1093.53,147.17c2.01-2.15,5.5-.12,4.7,2.71-6.01,21-27.2,35.26-47.52,35.26-34.41,0-57.19-24.48-57.19-56.71,0-38.77,25.93-64.22,62.52-64.22,22.29,0,42.89,13.81,42.89,33.44,0,14.06-6.79,21.57-19.87,21.57-10.66,0-17.69-8-17.69-19.87,0-5.25,2.52-10.5,7.01-14.49,1.48-1.31,1.05-3.75-.74-4.59-3.68-1.72-8.52-2.49-14.51-2.49-18.42,0-32.47,16.24-32.47,37.08,0,29.56,15.99,45.8,39.98,45.8,11.32,0,24.12-4.12,32.89-13.49Z"/>
  <circle class="cls-1" cx="817.18" cy="21.29" r="18.42"/>
  <g>
    <path class="cls-1" d="m281.74,165.96s0,0,0,0,0,0,0,0c0-4.54-.23-8.81-.64-13.14-.2-2.15-2.26-3.65-4.39-3.24-30.28,5.8-60.53,11.89-90.45,18.18-4.22.89-6.27-4.95-2.42-6.88,27.49-13.8,64.47-32.33,85.76-43.38,1.68-.87,2.45-2.9,1.73-4.65-.2-.5-.42-.99-.63-1.48-.01-.04-.02-.07-.04-.11-.06-.13-.12-.26-.17-.4-.34-.79-.68-1.58-1.03-2.36-.12-.26-.23-.52-.35-.78-.35-.78-.72-1.56-1.09-2.33-.13-.26-.25-.52-.38-.79-.37-.76-.74-1.51-1.12-2.26-.14-.27-.28-.54-.42-.82-.38-.73-.76-1.46-1.15-2.18-.15-.29-.31-.58-.47-.86-.38-.7-.77-1.39-1.17-2.09-.17-.31-.35-.61-.53-.92-.39-.67-.78-1.33-1.17-1.99-.2-.32-.39-.65-.59-.97-.39-.63-.78-1.26-1.18-1.89-.22-.34-.43-.68-.65-1.02-.17-.26-.33-.53-.5-.79-.04-.07-.09-.13-.14-.19-.31-.47-.62-.95-.94-1.42-1.19-1.76-3.65-2.11-5.33-.81-26.09,20.33-52,40.94-77.47,61.59-.46.38-.95.61-1.44.74-2.37-.39-4.18-3.15-2.53-5.67,18.37-28.1,42.37-64.82,55.4-84.76,1.06-1.62.7-3.8-.85-4.96-.51-.38-1.03-.75-1.54-1.13-.1-.1-.21-.19-.33-.27-7.41-5.39-15.36-10.07-23.76-13.95-1.89-.87-4.14.04-4.94,1.96-13.69,32.59-27.07,65.36-40.04,97.94-.58,1.45-1.75,2.18-2.97,2.31-1.62-.41-2.98-1.85-2.75-3.97,3.79-35.18,6.44-70.72,9.63-106.25.18-1.99-1.25-3.79-3.24-4.01-1.11-.12-1.34-.23-2.46-.33-.08-.01-.16-.03-.25-.03-1.27-.11-2.54-.19-3.81-.27-.37-.02-.75-.04-1.12-.06-.5-.03-.99-.05-1.49-.07-.69-.03-1.38-.05-2.07-.07-.27,0-.54-.01-.82-.02-.85-.02-1.7-.03-2.55-.03-.01,0-.03,0-.04,0,0,0,0,0-.01,0s0,0-.01,0c-.01,0-.03,0-.04,0-.85,0-1.7.01-2.55.03-.27,0-.54.01-.82.02-.69.02-1.38.04-2.07.07-.5.02-.99.05-1.49.07-.37.02-.75.04-1.12.06-1.27.08-2.55.16-3.81.27-.08,0-.16.02-.25.03-1.12.1-1.35.21-2.46.33-1.98.22-3.41,2.02-3.24,4.01,3.19,35.53,5.83,71.07,9.63,106.25.23,2.12-1.13,3.56-2.75,3.97-1.22-.13-2.39-.86-2.97-2.31-12.98-32.58-26.36-65.34-40.04-97.94-.8-1.92-3.05-2.83-4.94-1.96-8.4,3.87-16.35,8.56-23.76,13.95-.12.08-.23.18-.33.27-.51.38-1.03.75-1.54,1.13-1.55,1.16-1.9,3.35-.85,4.96,13.03,19.94,37.03,56.66,55.4,84.76,1.65,2.52-.16,5.29-2.53,5.67-.49-.13-.98-.37-1.44-.74-25.47-20.65-51.38-41.26-77.47-61.59-1.67-1.3-4.14-.95-5.33.81-.32.47-.62.95-.94,1.42-.05.06-.1.13-.14.19-.17.26-.33.52-.5.79-.22.34-.43.68-.65,1.02-.4.63-.79,1.26-1.18,1.89-.2.32-.39.64-.59.97-.4.66-.79,1.32-1.17,1.99-.18.3-.35.61-.52.92-.39.69-.78,1.39-1.17,2.09-.16.29-.31.57-.47.86-.39.72-.77,1.45-1.15,2.18-.14.27-.28.54-.42.82-.38.75-.76,1.51-1.12,2.26-.13.26-.25.52-.38.79-.37.77-.73,1.55-1.09,2.33-.12.26-.23.52-.35.78-.35.78-.69,1.57-1.03,2.36-.06.13-.12.26-.17.4-.01.04-.03.07-.04.11-.21.49-.42.99-.63,1.48-.72,1.75.05,3.78,1.73,4.65,21.29,11.05,58.27,29.58,85.76,43.38,3.85,1.93,1.8,7.77-2.42,6.88-29.92-6.29-60.17-12.38-90.45-18.18-2.12-.41-4.18,1.09-4.39,3.24-.41,4.33-.64,8.59-.64,13.14,0,0,0,0,0,0s0,0,0,0c0,.1,0,.2,0,.3,0,4.16.22,8.27.6,12.32.03.27.04.55.07.83.18,1.88,1.8,3.3,3.69,3.31h0s0,0,0,0h96.12c9.98,0,19.24-5.23,24.38-13.79l8.57-14.25c1.69-2.81,4.56-4.21,7.44-4.21,2.88,0,5.75,1.4,7.44,4.21l8.57,14.25c5.14,8.56,14.4,13.79,24.38,13.79h96.13,0c1.89,0,3.5-1.43,3.69-3.31.03-.27.05-.55.07-.83.37-4.06.59-8.17.6-12.32,0-.1,0-.2,0-.3Z"/>
    <path class="cls-1" d="m235.01,27.63c-1.76,1.77-3.88,2.65-6.38,2.65s-4.62-.88-6.38-2.65-2.64-3.9-2.64-6.4.88-4.61,2.64-6.36c1.76-1.75,3.88-2.63,6.38-2.63s4.62.88,6.38,2.63c1.76,1.75,2.64,3.87,2.64,6.36s-.88,4.63-2.64,6.4Zm-11.83-11.87c-1.5,1.51-2.24,3.34-2.24,5.48s.74,4,2.23,5.52c1.5,1.52,3.33,2.28,5.47,2.28s3.96-.76,5.47-2.28c1.49-1.52,2.23-3.36,2.23-5.52s-.74-3.97-2.24-5.48c-1.49-1.52-3.31-2.28-5.46-2.28s-3.95.76-5.46,2.28h0Zm8.45,9.8c-.77.61-1.69.91-2.75.91-1.35,0-2.5-.48-3.46-1.45-.96-.97-1.43-2.25-1.43-3.85,0-1.5.43-2.75,1.29-3.76.86-1,1.99-1.51,3.38-1.51.87,0,1.66.18,2.37.53,1.22.63,1.88,1.67,1.99,3.14h-1.49c-.07-.61-.33-1.15-.77-1.6s-1.08-.67-1.92-.67c-1.19,0-2.04.53-2.57,1.6-.34.68-.52,1.41-.52,2.2,0,1.12.28,2.06.83,2.83.55.77,1.35,1.15,2.39,1.15.67,0,1.23-.18,1.68-.53.45-.36.76-.87.94-1.55h1.49c-.19,1.11-.67,1.96-1.43,2.57h0Z"/>
  </g>
  <g>
    <path class="cls-1" d="m281.74,165.96s0,0,0,0,0,0,0,0c0-4.54-.23-8.81-.64-13.14-.2-2.15-2.26-3.65-4.39-3.24-30.28,5.8-60.53,11.89-90.45,18.18-4.22.89-6.27-4.95-2.42-6.88,27.49-13.8,64.47-32.33,85.76-43.38,1.68-.87,2.45-2.9,1.73-4.65-.2-.5-.42-.99-.63-1.48-.01-.04-.02-.07-.04-.11-.06-.13-.12-.26-.17-.4-.34-.79-.68-1.58-1.03-2.36-.12-.26-.23-.52-.35-.78-.35-.78-.72-1.56-1.09-2.33-.13-.26-.25-.52-.38-.79-.37-.76-.74-1.51-1.12-2.26-.14-.27-.28-.54-.42-.82-.38-.73-.76-1.46-1.15-2.18-.15-.29-.31-.58-.47-.86-.38-.7-.77-1.39-1.17-2.09-.17-.31-.35-.61-.53-.92-.39-.67-.78-1.33-1.17-1.99-.2-.32-.39-.65-.59-.97-.39-.63-.78-1.26-1.18-1.89-.22-.34-.43-.68-.65-1.02-.17-.26-.33-.53-.5-.79-.04-.07-.09-.13-.14-.19-.31-.47-.62-.95-.94-1.42-1.19-1.76-3.65-2.11-5.33-.81-26.09,20.33-52,40.94-77.47,61.59-.46.38-.95.61-1.44.74-2.37-.39-4.18-3.15-2.53-5.67,18.37-28.1,42.37-64.82,55.4-84.76,1.06-1.62.7-3.8-.85-4.96-.51-.38-1.03-.75-1.54-1.13-.1-.1-.21-.19-.33-.27-7.41-5.39-15.36-10.07-23.76-13.95-1.89-.87-4.14.04-4.94,1.96-13.69,32.59-27.07,65.36-40.04,97.94-.58,1.45-1.75,2.18-2.97,2.31-1.62-.41-2.98-1.85-2.75-3.97,3.79-35.18,6.44-70.72,9.63-106.25.18-1.99-1.25-3.79-3.24-4.01-1.11-.12-1.34-.23-2.46-.33-.08-.01-.16-.03-.25-.03-1.27-.11-2.54-.19-3.81-.27-.37-.02-.75-.04-1.12-.06-.5-.03-.99-.05-1.49-.07-.69-.03-1.38-.05-2.07-.07-.27,0-.54-.01-.82-.02-.85-.02-1.7-.03-2.55-.03-.01,0-.03,0-.04,0,0,0,0,0-.01,0s0,0-.01,0c-.01,0-.03,0-.04,0-.85,0-1.7.01-2.55.03-.27,0-.54.01-.82.02-.69.02-1.38.04-2.07.07-.5.02-.99.05-1.49.07-.37.02-.75.04-1.12.06-1.27.08-2.55.16-3.81.27-.08,0-.16.02-.25.03-1.12.1-1.35.21-2.46.33-1.98.22-3.41,2.02-3.24,4.01,3.19,35.53,5.83,71.07,9.63,106.25.23,2.12-1.13,3.56-2.75,3.97-1.22-.13-2.39-.86-2.97-2.31-12.98-32.58-26.36-65.34-40.04-97.94-.8-1.92-3.05-2.83-4.94-1.96-8.4,3.87-16.35,8.56-23.76,13.95-.12.08-.23.18-.33.27-.51.38-1.03.75-1.54,1.13-1.55,1.16-1.9,3.35-.85,4.96,13.03,19.94,37.03,56.66,55.4,84.76,1.65,2.52-.16,5.29-2.53,5.67-.49-.13-.98-.37-1.44-.74-25.47-20.65-51.38-41.26-77.47-61.59-1.67-1.3-4.14-.95-5.33.81-.32.47-.62.95-.94,1.42-.05.06-.1.13-.14.19-.17.26-.33.52-.5.79-.22.34-.43.68-.65,1.02-.4.63-.79,1.26-1.18,1.89-.2.32-.39.64-.59.97-.4.66-.79,1.32-1.17,1.99-.18.3-.35.61-.52.92-.39.69-.78,1.39-1.17,2.09-.16.29-.31.57-.47.86-.39.72-.77,1.45-1.15,2.18-.14.27-.28.54-.42.82-.38.75-.76,1.51-1.12,2.26-.13.26-.25.52-.38.79-.37.77-.73,1.55-1.09,2.33-.12.26-.23.52-.35.78-.35.78-.69,1.57-1.03,2.36-.06.13-.12.26-.17.4-.01.04-.03.07-.04.11-.21.49-.42.99-.63,1.48-.72,1.75.05,3.78,1.73,4.65,21.29,11.05,58.27,29.58,85.76,43.38,3.85,1.93,1.8,7.77-2.42,6.88-29.92-6.29-60.17-12.38-90.45-18.18-2.12-.41-4.18,1.09-4.39,3.24-.41,4.33-.64,8.59-.64,13.14,0,0,0,0,0,0s0,0,0,0c0,.1,0,.2,0,.3,0,4.16.22,8.27.6,12.32.03.27.04.55.07.83.18,1.88,1.8,3.3,3.69,3.31h0s0,0,0,0h96.12c9.98,0,19.24-5.23,24.38-13.79l8.57-14.25c1.69-2.81,4.56-4.21,7.44-4.21,2.88,0,5.75,1.4,7.44,4.21l8.57,14.25c5.14,8.56,14.4,13.79,24.38,13.79h96.13,0c1.89,0,3.5-1.43,3.69-3.31.03-.27.05-.55.07-.83.37-4.06.59-8.17.6-12.32,0-.1,0-.2,0-.3Z"/>
    <path class="cls-1" d="m235.01,27.63c-1.76,1.77-3.88,2.65-6.38,2.65s-4.62-.88-6.38-2.65-2.64-3.9-2.64-6.4.88-4.61,2.64-6.36c1.76-1.75,3.88-2.63,6.38-2.63s4.62.88,6.38,2.63c1.76,1.75,2.64,3.87,2.64,6.36s-.88,4.63-2.64,6.4Zm-11.83-11.87c-1.5,1.51-2.24,3.34-2.24,5.48s.74,4,2.23,5.52c1.5,1.52,3.33,2.28,5.47,2.28s3.96-.76,5.47-2.28c1.49-1.52,2.23-3.36,2.23-5.52s-.74-3.97-2.24-5.48c-1.49-1.52-3.31-2.28-5.46-2.28s-3.95.76-5.46,2.28h0Zm8.45,9.8c-.77.61-1.69.91-2.75.91-1.35,0-2.5-.48-3.46-1.45-.96-.97-1.43-2.25-1.43-3.85,0-1.5.43-2.75,1.29-3.76.86-1,1.99-1.51,3.38-1.51.87,0,1.66.18,2.37.53,1.22.63,1.88,1.67,1.99,3.14h-1.49c-.07-.61-.33-1.15-.77-1.6s-1.08-.67-1.92-.67c-1.19,0-2.04.53-2.57,1.6-.34.68-.52,1.41-.52,2.2,0,1.12.28,2.06.83,2.83.55.77,1.35,1.15,2.39,1.15.67,0,1.23-.18,1.68-.53.45-.36.76-.87.94-1.55h1.49c-.19,1.11-.67,1.96-1.43,2.57h0Z"/>
  </g>
</svg>